<svg fill="currentColor" height="24" viewBox="0 0 24 24" width="24" xmlns="http://www.w3.org/2000/svg">
<g>
	<path d="M18.537,6.945H1.432C0.641,6.945,0,7.582,0,8.369v14.262c0,0.785,0.641,1.426,1.432,1.426h17.105
		c0.785,0,1.426-0.641,1.426-1.426V8.369C19.963,7.582,19.322,6.945,18.537,6.945z M6.817,8.016c0.395,0,0.712,0.318,0.712,0.713
		c0,0.393-0.317,0.713-0.712,0.713c-0.392,0-0.71-0.32-0.71-0.713C6.107,8.334,6.426,8.016,6.817,8.016z M4.639,8.016
		c0.391,0,0.71,0.318,0.71,0.713c0,0.393-0.319,0.713-0.71,0.713c-0.397,0-0.717-0.32-0.717-0.713
		C3.922,8.334,4.241,8.016,4.639,8.016z M2.494,8.016c0.396,0,0.715,0.318,0.715,0.713c0,0.393-0.318,0.713-0.715,0.713
		c-0.39,0-0.709-0.32-0.709-0.713C1.785,8.334,2.104,8.016,2.494,8.016z M18.537,22.631H1.432V10.527h17.105
		C18.537,10.527,18.537,22.631,18.537,22.631z M18.537,9.101H8.559V8.387h9.979L18.537,9.101L18.537,9.101z"/>
	<path d="M23.209,0.58H6.102c-0.79,0-1.426,0.637-1.426,1.426v4.133h1.426V4.162h17.107v12.104h-2.483v1.426h2.483
		c0.786,0,1.428-0.641,1.428-1.426V2.006C24.637,1.217,23.995,0.58,23.209,0.58z M7.17,3.076c-0.394,0-0.711-0.316-0.711-0.711
		c0-0.398,0.317-0.713,0.711-0.713c0.393,0,0.713,0.314,0.713,0.713C7.883,2.76,7.562,3.076,7.17,3.076z M9.309,3.076
		c-0.396,0-0.713-0.316-0.713-0.711c0-0.398,0.316-0.713,0.713-0.713c0.394,0,0.714,0.314,0.714,0.713
		C10.022,2.76,9.702,3.076,9.309,3.076z M11.494,3.076c-0.396,0-0.717-0.316-0.717-0.711c0-0.398,0.32-0.713,0.717-0.713
		c0.389,0,0.707,0.314,0.707,0.713C12.201,2.76,11.883,3.076,11.494,3.076z M23.209,2.734h-9.98V2.019h9.98V2.734z"/>
</g>
</svg>
