<?xml version="1.0" encoding="iso-8859-1"?>
<!-- Generator: Adobe Illustrator 19.0.0, SVG Export Plug-In . SVG Version: 6.00 Build 0)  -->
<svg version="1.1" id="Capa_1" xmlns="http://www.w3.org/2000/svg" xmlns:xlink="http://www.w3.org/1999/xlink" x="0px" y="0px"
	 viewBox="0 0 385.331 385.331" style="enable-background:new 0 0 385.331 385.331;" xml:space="preserve">
<g>
	<g id="Fullscreen_Exit">
		<path d="M264.943,156.665h108.273c6.833,0,11.934-5.39,11.934-12.211c0-6.833-5.101-11.85-11.934-11.838h-96.242V36.181
			c0-6.833-5.197-12.03-12.03-12.03s-12.03,5.197-12.03,12.03v108.273c0,0.036,0.012,0.06,0.012,0.084
			c0,0.036-0.012,0.06-0.012,0.096C252.913,151.347,258.23,156.677,264.943,156.665z"/>
		<path d="M120.291,24.247c-6.821,0-11.838,5.113-11.838,11.934v96.242H12.03c-6.833,0-12.03,5.197-12.03,12.03
			c0,6.833,5.197,12.03,12.03,12.03h108.273c0.036,0,0.06-0.012,0.084-0.012c0.036,0,0.06,0.012,0.096,0.012
			c6.713,0,12.03-5.317,12.03-12.03V36.181C132.514,29.36,127.124,24.259,120.291,24.247z"/>
		<path d="M120.387,228.666H12.115c-6.833,0.012-11.934,5.39-11.934,12.223c0,6.833,5.101,11.85,11.934,11.838h96.242v96.423
			c0,6.833,5.197,12.03,12.03,12.03c6.833,0,12.03-5.197,12.03-12.03V240.877c0-0.036-0.012-0.06-0.012-0.084
			c0-0.036,0.012-0.06,0.012-0.096C132.418,233.983,127.1,228.666,120.387,228.666z"/>
		<path d="M373.3,228.666H265.028c-0.036,0-0.06,0.012-0.084,0.012c-0.036,0-0.06-0.012-0.096-0.012
			c-6.713,0-12.03,5.317-12.03,12.03v108.273c0,6.833,5.39,11.922,12.223,11.934c6.821,0.012,11.838-5.101,11.838-11.922v-96.242
			H373.3c6.833,0,12.03-5.197,12.03-12.03S380.134,228.678,373.3,228.666z"/>
	</g>
	<g>
	</g>
	<g>
	</g>
	<g>
	</g>
	<g>
	</g>
	<g>
	</g>
	<g>
	</g>
</g>
<g>
</g>
<g>
</g>
<g>
</g>
<g>
</g>
<g>
</g>
<g>
</g>
<g>
</g>
<g>
</g>
<g>
</g>
<g>
</g>
<g>
</g>
<g>
</g>
<g>
</g>
<g>
</g>
<g>
</g>
</svg>
